<svg width="1116" height="1168" viewBox="0 0 1116 1168" class="keymap" xmlns="http://www.w3.org/2000/svg" xmlns:xlink="http://www.w3.org/1999/xlink">
<defs>/* start glyphs */
<svg id="mdi:apple-keyboard-caps">
<svg xmlns="http://www.w3.org/2000/svg" viewBox="0 0 24 24"><title>apple-keyboard-caps</title><path d="M15,14V8H17.17L12,2.83L6.83,8H9V14H15M12,0L22,10H17V16H7V10H2L12,0M7,18H17V24H7V18M15,20H9V22H15V20Z" /></svg>

</svg>
<svg id="mdi:apple-keyboard-command">
<svg xmlns="http://www.w3.org/2000/svg" viewBox="0 0 24 24"><title>apple-keyboard-command</title><path d="M6,2A4,4 0 0,1 10,6V8H14V6A4,4 0 0,1 18,2A4,4 0 0,1 22,6A4,4 0 0,1 18,10H16V14H18A4,4 0 0,1 22,18A4,4 0 0,1 18,22A4,4 0 0,1 14,18V16H10V18A4,4 0 0,1 6,22A4,4 0 0,1 2,18A4,4 0 0,1 6,14H8V10H6A4,4 0 0,1 2,6A4,4 0 0,1 6,2M16,18A2,2 0 0,0 18,20A2,2 0 0,0 20,18A2,2 0 0,0 18,16H16V18M14,10H10V14H14V10M6,16A2,2 0 0,0 4,18A2,2 0 0,0 6,20A2,2 0 0,0 8,18V16H6M8,6A2,2 0 0,0 6,4A2,2 0 0,0 4,6A2,2 0 0,0 6,8H8V6M18,8A2,2 0 0,0 20,6A2,2 0 0,0 18,4A2,2 0 0,0 16,6V8H18Z" /></svg>

</svg>
<svg id="mdi:apple-keyboard-control">
<svg xmlns="http://www.w3.org/2000/svg" viewBox="0 0 24 24"><title>apple-keyboard-control</title><path d="M19.78,11.78L18.36,13.19L12,6.83L5.64,13.19L4.22,11.78L12,4L19.78,11.78Z" /></svg>

</svg>
<svg id="mdi:apple-keyboard-option">
<svg xmlns="http://www.w3.org/2000/svg" viewBox="0 0 24 24"><title>apple-keyboard-option</title><path d="M3,4H9.11L16.15,18H21V20H14.88L7.84,6H3V4M14,4H21V6H14V4Z" /></svg>

</svg>
<svg id="mdi:apple-keyboard-shift">
<svg xmlns="http://www.w3.org/2000/svg" viewBox="0 0 24 24"><title>apple-keyboard-shift</title><path d="M15,18V12H17.17L12,6.83L6.83,12H9V18H15M12,4L22,14H17V20H7V14H2L12,4Z" /></svg>

</svg>
<svg id="mdi:arrow-down">
<svg xmlns="http://www.w3.org/2000/svg" viewBox="0 0 24 24"><title>arrow-down</title><path d="M11,4H13V16L18.5,10.5L19.92,11.92L12,19.84L4.08,11.92L5.5,10.5L11,16V4Z" /></svg>

</svg>
<svg id="mdi:arrow-left">
<svg xmlns="http://www.w3.org/2000/svg" viewBox="0 0 24 24"><title>arrow-left</title><path d="M20,11V13H8L13.5,18.5L12.08,19.92L4.16,12L12.08,4.08L13.5,5.5L8,11H20Z" /></svg>

</svg>
<svg id="mdi:arrow-right">
<svg xmlns="http://www.w3.org/2000/svg" viewBox="0 0 24 24"><title>arrow-right</title><path d="M4,11V13H16L10.5,18.5L11.92,19.92L19.84,12L11.92,4.08L10.5,5.5L16,11H4Z" /></svg>

</svg>
<svg id="mdi:arrow-up">
<svg xmlns="http://www.w3.org/2000/svg" viewBox="0 0 24 24"><title>arrow-up</title><path d="M13,20H11V8L5.5,13.5L4.08,12.08L12,4.16L19.92,12.08L18.5,13.5L13,8V20Z" /></svg>

</svg>
<svg id="mdi:backspace-outline">
<svg xmlns="http://www.w3.org/2000/svg" viewBox="0 0 24 24"><title>backspace-outline</title><path d="M19,15.59L17.59,17L14,13.41L10.41,17L9,15.59L12.59,12L9,8.41L10.41,7L14,10.59L17.59,7L19,8.41L15.41,12L19,15.59M22,3A2,2 0 0,1 24,5V19A2,2 0 0,1 22,21H7C6.31,21 5.77,20.64 5.41,20.11L0,12L5.41,3.88C5.77,3.35 6.31,3 7,3H22M22,5H7L2.28,12L7,19H22V5Z" /></svg>

</svg>
<svg id="mdi:keyboard-return">
<svg xmlns="http://www.w3.org/2000/svg" viewBox="0 0 24 24"><title>keyboard-return</title><path d="M19,7V11H5.83L9.41,7.41L8,6L2,12L8,18L9.41,16.58L5.83,13H21V7H19Z" /></svg>

</svg>
<svg id="mdi:keyboard-space">
<svg xmlns="http://www.w3.org/2000/svg" viewBox="0 0 24 24"><title>keyboard-space</title><path d="M3 15H5V19H19V15H21V19C21 20.1 20.1 21 19 21H5C3.9 21 3 20.1 3 19V15Z" /></svg>

</svg>
<svg id="mdi:keyboard-tab">
<svg xmlns="http://www.w3.org/2000/svg" viewBox="0 0 24 24"><title>keyboard-tab</title><path d="M20,18H22V6H20M11.59,7.41L15.17,11H1V13H15.17L11.59,16.58L13,18L19,12L13,6L11.59,7.41Z" /></svg>

</svg>
<svg id="mdi:mouse">
<svg xmlns="http://www.w3.org/2000/svg" viewBox="0 0 24 24"><title>mouse</title><path d="M11,1.07C7.05,1.56 4,4.92 4,9H11M4,15A8,8 0 0,0 12,23A8,8 0 0,0 20,15V11H4M13,1.07V9H20C20,4.92 16.94,1.56 13,1.07Z" /></svg>

</svg>
<svg id="mdi:mouse-left-click">
<svg xmlns="http://www.w3.org/2000/svg" viewBox="0 0 24 24"><title>mouse-left-click</title><path d="M13 9V1.07C16.94 1.56 20 4.92 20 9H13M6.34 20.66C4.84 19.16 4 17.12 4 15V11H20V15C20 17.12 19.16 19.16 17.66 20.66C16.16 22.16 14.12 23 12 23C9.88 23 7.84 22.16 6.34 20.66M11 9V1.07C10.3 1.16 9.63 1.33 9 1.59C6.67 2.53 4.89 4.53 4.25 7C4.09 7.64 4 8.31 4 9H11M6.34 7C6.82 5.65 7.78 4.5 9 3.81V7H6.34Z" /></svg>

</svg>
<svg id="mdi:mouse-move-down">
<svg xmlns="http://www.w3.org/2000/svg" viewBox="0 0 24 24"><title>mouse-move-down</title><path d="M7 9H2C2 6.04 4.17 3.57 7 3.09V9M20 7H18V13H15L19 17L23 13H20V7M9 3.09V9H14C14 6.04 11.83 3.57 9 3.09M2 15C2 18.3 4.7 21 8 21S14 18.3 14 15V11H2V15Z" /></svg>

</svg>
<svg id="mdi:mouse-move-up">
<svg xmlns="http://www.w3.org/2000/svg" viewBox="0 0 24 24"><title>mouse-move-up</title><path d="M7 9H2C2 6.04 4.17 3.57 7 3.09V9M18 17H20V11H23L19 7L15 11H18V17M9 3.09V9H14C14 6.04 11.83 3.57 9 3.09M2 15C2 18.3 4.7 21 8 21S14 18.3 14 15V11H2V15Z" /></svg>

</svg>
<svg id="mdi:mouse-right-click">
<svg xmlns="http://www.w3.org/2000/svg" viewBox="0 0 24 24"><title>mouse-right-click</title><path d="M13 9V1.07C13.7 1.16 14.37 1.33 15 1.59C17.33 2.53 19.11 4.53 19.75 7C19.91 7.64 20 8.31 20 9H13M17.66 7C17.18 5.65 16.23 4.5 15 3.81V7H17.66M11 9V1.07C7.06 1.56 4 4.92 4 9H11M6.34 20.66C4.84 19.16 4 17.12 4 15V11H20V15C20 17.12 19.16 19.16 17.66 20.66C16.16 22.16 14.12 23 12 23C9.88 23 7.84 22.16 6.34 20.66Z" /></svg>

</svg>
</defs>/* end glyphs */
<style>/* inherit to force styles through use tags */
svg path {
    fill: inherit;
}

/* font and background color specifications */
svg.keymap {
    font-family: SFMono-Regular,Consolas,Liberation Mono,Menlo,monospace;
    font-size: 14px;
    font-kerning: normal;
    text-rendering: optimizeLegibility;
    fill: #24292e;
}

/* default key styling */
rect.key {
    fill: #f6f8fa;
}

rect.key, rect.combo {
    stroke: #c9cccf;
    stroke-width: 1;
}

/* default key side styling, only used is draw_key_sides is set */
rect.side {
    filter: brightness(90%);
}

/* color accent for combo boxes */
rect.combo, rect.combo-separate {
    fill: #cdf;
}

/* color accent for held keys */
rect.held, rect.combo.held {
    fill: #fdd;
}

/* color accent for ghost (optional) keys */
rect.ghost, rect.combo.ghost {
    stroke-dasharray: 4, 4;
    stroke-width: 2;
}

text {
    text-anchor: middle;
    dominant-baseline: middle;
}

/* styling for layer labels */
text.label {
    font-weight: bold;
    text-anchor: start;
    stroke: white;
    stroke-width: 4;
    paint-order: stroke;
}

/* styling for optional footer */
text.footer {
    text-anchor: end;
    dominant-baseline: auto;
    stroke: white;
    stroke-width: 4;
    paint-order: stroke;
}

/* styling for combo tap, and key non-tap label text */
text.combo, text.hold, text.shifted, text.left, text.right {
    font-size: 11px;
}

text.hold {
    text-anchor: middle;
    dominant-baseline: auto;
}

text.shifted {
    text-anchor: middle;
    dominant-baseline: hanging;
}

text.left {
    text-anchor: start;
}

text.right {
    text-anchor: end;
}

text.layer-activator {
    text-decoration: underline;
}

/* styling for hold/shifted label text in combo box */
text.combo.hold, text.combo.shifted, text.combo.left, text.combo.right {
    font-size: 8px;
}

/* lighter symbol for transparent keys */
text.trans {
    fill: #7b7e81;
}

/* styling for combo dendrons */
path.combo {
    stroke-width: 1;
    stroke: gray;
    fill: none;
}

/* Start Tabler Icons Cleanup */
/* cannot use height/width with glyphs */
.icon-tabler > path {
    fill: inherit;
    stroke: inherit;
    stroke-width: 2;
}
/* hide tabler's default box */
.icon-tabler > path[stroke="none"][fill="none"] {
    visibility: hidden;
}
/* End Tabler Icons Cleanup */

/* For default styles, see: https://github.com/caksoylar/keymap-drawer/blob/main/keymap_drawer/config.py#L85 */

svg.keymap {
  font-family: Ubuntu Mono, Inconsolata, Consolas, Liberation Mono, Menlo, monospace;
  font-size: 12px;
  font-weight: bold;
  text-rendering: optimizeLegibility;
  background-color: #FFF;
}

/* Color accent for held keys */
rect.held, rect.combo.held {
    fill: #ffc;
}
</style>
<g transform="translate(40, 0)" class="layer-Qwer-Mac">
<text x="0" y="28" class="label" id="Qwer-Mac">Qwer-Mac:</text>
<g transform="translate(0, 56)">
<g transform="translate(28, 63)" class="key keypos-0">
<rect rx="6" ry="6" x="-26" y="-26" width="52" height="52" class="key"/>
<use href="#mdi:keyboard-tab" xlink:href="#mdi:keyboard-tab" x="-9" y="-9" height="18" width="18.0" class="key tap glyph mdi:keyboard-tab"/>
</g>
<g transform="translate(84, 63)" class="key keypos-1">
<rect rx="6" ry="6" x="-26" y="-26" width="52" height="52" class="key"/>
<text x="0" y="0" class="key tap">Q</text>
</g>
<g transform="translate(140, 42)" class="key keypos-2">
<rect rx="6" ry="6" x="-26" y="-26" width="52" height="52" class="key"/>
<text x="0" y="0" class="key tap">W</text>
</g>
<g transform="translate(196, 28)" class="key keypos-3">
<rect rx="6" ry="6" x="-26" y="-26" width="52" height="52" class="key"/>
<text x="0" y="0" class="key tap">E</text>
</g>
<g transform="translate(252, 42)" class="key keypos-4">
<rect rx="6" ry="6" x="-26" y="-26" width="52" height="52" class="key"/>
<text x="0" y="0" class="key tap">R</text>
</g>
<g transform="translate(308, 42)" class="key keypos-5">
<rect rx="6" ry="6" x="-26" y="-26" width="52" height="52" class="key"/>
<text x="0" y="0" class="key tap">T</text>
</g>
<g transform="translate(728, 42)" class="key keypos-6">
<rect rx="6" ry="6" x="-26" y="-26" width="52" height="52" class="key"/>
<text x="0" y="0" class="key tap">Y</text>
</g>
<g transform="translate(784, 42)" class="key keypos-7">
<rect rx="6" ry="6" x="-26" y="-26" width="52" height="52" class="key"/>
<text x="0" y="0" class="key tap">U</text>
</g>
<g transform="translate(840, 28)" class="key keypos-8">
<rect rx="6" ry="6" x="-26" y="-26" width="52" height="52" class="key"/>
<text x="0" y="0" class="key tap">I</text>
</g>
<g transform="translate(896, 42)" class="key keypos-9">
<rect rx="6" ry="6" x="-26" y="-26" width="52" height="52" class="key"/>
<text x="0" y="0" class="key tap">O</text>
</g>
<g transform="translate(952, 63)" class="key keypos-10">
<rect rx="6" ry="6" x="-26" y="-26" width="52" height="52" class="key"/>
<text x="0" y="0" class="key tap">P</text>
</g>
<g transform="translate(1008, 63)" class="key none keypos-11">
<rect rx="6" ry="6" x="-26" y="-26" width="52" height="52" class="key none"/>
</g>
<g transform="translate(28, 119)" class="key keypos-12">
<rect rx="6" ry="6" x="-26" y="-26" width="52" height="52" class="key"/>
<use href="#mdi:apple-keyboard-control" xlink:href="#mdi:apple-keyboard-control" x="-9" y="-9" height="18" width="18.0" class="key tap glyph mdi:apple-keyboard-control"/>
</g>
<g transform="translate(84, 119)" class="key keypos-13">
<rect rx="6" ry="6" x="-26" y="-26" width="52" height="52" class="key"/>
<text x="0" y="0" class="key tap">A</text>
</g>
<g transform="translate(140, 98)" class="key keypos-14">
<rect rx="6" ry="6" x="-26" y="-26" width="52" height="52" class="key"/>
<text x="0" y="0" class="key tap">S</text>
<use href="#mdi:apple-keyboard-command" xlink:href="#mdi:apple-keyboard-command" x="-8" y="9" height="15" width="15.0" class="key hold glyph mdi:apple-keyboard-command"/>
</g>
<g transform="translate(196, 84)" class="key keypos-15">
<rect rx="6" ry="6" x="-26" y="-26" width="52" height="52" class="key"/>
<text x="0" y="0" class="key tap">D</text>
<use href="#mdi:apple-keyboard-shift" xlink:href="#mdi:apple-keyboard-shift" x="-8" y="9" height="15" width="15.0" class="key hold glyph mdi:apple-keyboard-shift"/>
</g>
<g transform="translate(252, 98)" class="key keypos-16">
<rect rx="6" ry="6" x="-26" y="-26" width="52" height="52" class="key"/>
<text x="0" y="0" class="key tap">F</text>
</g>
<g transform="translate(308, 98)" class="key keypos-17">
<rect rx="6" ry="6" x="-26" y="-26" width="52" height="52" class="key"/>
<text x="0" y="0" class="key tap">G</text>
</g>
<g transform="translate(728, 98)" class="key keypos-18">
<rect rx="6" ry="6" x="-26" y="-26" width="52" height="52" class="key"/>
<text x="0" y="0" class="key tap">H</text>
</g>
<g transform="translate(784, 98)" class="key keypos-19">
<rect rx="6" ry="6" x="-26" y="-26" width="52" height="52" class="key"/>
<text x="0" y="0" class="key tap">J</text>
</g>
<g transform="translate(840, 84)" class="key keypos-20">
<rect rx="6" ry="6" x="-26" y="-26" width="52" height="52" class="key"/>
<text x="0" y="0" class="key tap">K</text>
<use href="#mdi:apple-keyboard-shift" xlink:href="#mdi:apple-keyboard-shift" x="-8" y="9" height="15" width="15.0" class="key hold glyph mdi:apple-keyboard-shift"/>
</g>
<g transform="translate(896, 98)" class="key keypos-21">
<rect rx="6" ry="6" x="-26" y="-26" width="52" height="52" class="key"/>
<text x="0" y="0" class="key tap">L</text>
<use href="#mdi:apple-keyboard-command" xlink:href="#mdi:apple-keyboard-command" x="-8" y="9" height="15" width="15.0" class="key hold glyph mdi:apple-keyboard-command"/>
</g>
<g transform="translate(952, 119)" class="key keypos-22">
<rect rx="6" ry="6" x="-26" y="-26" width="52" height="52" class="key"/>
<text x="0" y="0" class="key tap">;</text>
<text x="0" y="24" class="key hold">:</text>
<text x="0" y="-24" class="key shifted">:</text>
</g>
<g transform="translate(1008, 119)" class="key keypos-23">
<rect rx="6" ry="6" x="-26" y="-26" width="52" height="52" class="key"/>
<use href="#mdi:apple-keyboard-control" xlink:href="#mdi:apple-keyboard-control" x="-9" y="-9" height="18" width="18.0" class="key tap glyph mdi:apple-keyboard-control"/>
</g>
<g transform="translate(28, 175)" class="key keypos-24">
<rect rx="6" ry="6" x="-26" y="-26" width="52" height="52" class="key"/>
<use href="#mdi:apple-keyboard-caps" xlink:href="#mdi:apple-keyboard-caps" x="-9" y="-9" height="18" width="18.0" class="key tap glyph mdi:apple-keyboard-caps"/>
</g>
<g transform="translate(84, 175)" class="key keypos-25">
<rect rx="6" ry="6" x="-26" y="-26" width="52" height="52" class="key"/>
<text x="0" y="0" class="key tap">Z</text>
</g>
<g transform="translate(140, 154)" class="key keypos-26">
<rect rx="6" ry="6" x="-26" y="-26" width="52" height="52" class="key"/>
<text x="0" y="0" class="key tap">X</text>
</g>
<g transform="translate(196, 140)" class="key keypos-27">
<rect rx="6" ry="6" x="-26" y="-26" width="52" height="52" class="key"/>
<text x="0" y="0" class="key tap">C</text>
</g>
<g transform="translate(252, 154)" class="key keypos-28">
<rect rx="6" ry="6" x="-26" y="-26" width="52" height="52" class="key"/>
<text x="0" y="0" class="key tap">V</text>
</g>
<g transform="translate(308, 154)" class="key keypos-29">
<rect rx="6" ry="6" x="-26" y="-26" width="52" height="52" class="key"/>
<text x="0" y="0" class="key tap">B</text>
</g>
<g transform="translate(728, 154)" class="key keypos-30">
<rect rx="6" ry="6" x="-26" y="-26" width="52" height="52" class="key"/>
<text x="0" y="0" class="key tap">N</text>
</g>
<g transform="translate(784, 154)" class="key keypos-31">
<rect rx="6" ry="6" x="-26" y="-26" width="52" height="52" class="key"/>
<text x="0" y="0" class="key tap">M</text>
</g>
<g transform="translate(840, 140)" class="key keypos-32">
<rect rx="6" ry="6" x="-26" y="-26" width="52" height="52" class="key"/>
<text x="0" y="0" class="key tap">,</text>
<text x="0" y="24" class="key hold">&lt;</text>
<text x="0" y="-24" class="key shifted">&lt;</text>
</g>
<g transform="translate(896, 154)" class="key keypos-33">
<rect rx="6" ry="6" x="-26" y="-26" width="52" height="52" class="key"/>
<text x="0" y="0" class="key tap">.</text>
<text x="0" y="24" class="key hold">&gt;</text>
<text x="0" y="-24" class="key shifted">&gt;</text>
</g>
<g transform="translate(952, 175)" class="key keypos-34">
<rect rx="6" ry="6" x="-26" y="-26" width="52" height="52" class="key"/>
<text x="0" y="0" class="key tap">/</text>
<text x="0" y="24" class="key hold">?</text>
<text x="0" y="-24" class="key shifted">?</text>
</g>
<g transform="translate(1008, 175)" class="key keypos-35">
<rect rx="6" ry="6" x="-26" y="-26" width="52" height="52" class="key"/>
<use href="#mdi:apple-keyboard-option" xlink:href="#mdi:apple-keyboard-option" x="-9" y="-9" height="18" width="18.0" class="key tap glyph mdi:apple-keyboard-option"/>
</g>
<g transform="translate(404, 276) rotate(30.0)" class="key keypos-36">
<rect rx="6" ry="6" x="-26" y="-26" width="52" height="52" class="key"/>
<text x="0" y="0" class="key tap">ESCAPE</text>
<a href="#Nav-Mac">
<text x="0" y="24" class="key hold layer-activator"><tspan style="font-size: 86%">Nav-Mac</tspan></text>
</a></g>
<g transform="translate(140, 210)" class="key keypos-37">
<rect rx="6" ry="6" x="-26" y="-26" width="52" height="52" class="key"/>
<use href="#mdi:arrow-up" xlink:href="#mdi:arrow-up" x="-9" y="-9" height="18" width="18.0" class="key tap glyph mdi:arrow-up"/>
</g>
<g transform="translate(196, 196)" class="key keypos-38">
<rect rx="6" ry="6" x="-26" y="-26" width="52" height="52" class="key"/>
<use href="#mdi:arrow-down" xlink:href="#mdi:arrow-down" x="-9" y="-9" height="18" width="18.0" class="key tap glyph mdi:arrow-down"/>
</g>
<g transform="translate(280, 245)" class="key keypos-39">
<rect rx="6" ry="6" x="-26" y="-26" width="52" height="52" class="key"/>
<text x="0" y="0" class="key tap">\</text>
<text x="0" y="24" class="key hold">|</text>
<text x="0" y="-24" class="key shifted">|</text>
</g>
<g transform="translate(344, 253) rotate(15.0)" class="key keypos-40">
<rect rx="6" ry="6" x="-26" y="-26" width="52" height="52" class="key"/>
<use href="#mdi:keyboard-space" xlink:href="#mdi:keyboard-space" x="-9" y="-9" height="18" width="18.0" class="key tap glyph mdi:keyboard-space"/>
<a href="#Fun-Mac">
<text x="0" y="24" class="key hold layer-activator"><tspan style="font-size: 86%">Fun-Mac</tspan></text>
</a></g>
<g transform="translate(692, 251) rotate(-15.0)" class="key backspace keypos-41">
<rect rx="6" ry="6" x="-26" y="-26" width="52" height="52" class="key backspace"/>
<use href="#mdi:backspace-outline" xlink:href="#mdi:backspace-outline" x="-9" y="-9" height="18" width="18.0" class="key backspace tap glyph mdi:backspace-outline"/>
</g>
<g transform="translate(756, 245)" class="key keypos-42">
<rect rx="6" ry="6" x="-26" y="-26" width="52" height="52" class="key"/>
<text x="0" y="0" class="key tap">&#x27;</text>
<text x="0" y="24" class="key hold">&quot;</text>
<text x="0" y="-24" class="key shifted">&quot;</text>
</g>
<g transform="translate(840, 196)" class="key keypos-43">
<rect rx="6" ry="6" x="-26" y="-26" width="52" height="52" class="key"/>
<use href="#mdi:arrow-left" xlink:href="#mdi:arrow-left" x="-9" y="-9" height="18" width="18.0" class="key tap glyph mdi:arrow-left"/>
</g>
<g transform="translate(896, 210)" class="key keypos-44">
<rect rx="6" ry="6" x="-26" y="-26" width="52" height="52" class="key"/>
<use href="#mdi:arrow-right" xlink:href="#mdi:arrow-right" x="-9" y="-9" height="18" width="18.0" class="key tap glyph mdi:arrow-right"/>
</g>
<g transform="translate(632, 274) rotate(-30.0)" class="key enter keypos-45">
<rect rx="6" ry="6" x="-26" y="-26" width="52" height="52" class="key enter"/>
<use href="#mdi:keyboard-return" xlink:href="#mdi:keyboard-return" x="-9" y="-9" height="18" width="18.0" class="key enter tap glyph mdi:keyboard-return"/>
</g>
</g>
</g>
<g transform="translate(40, 371)" class="layer-Nav-Mac">
<text x="0" y="28" class="label" id="Nav-Mac">Nav-Mac:</text>
<g transform="translate(0, 56)">
<g transform="translate(28, 63)" class="key none keypos-0">
<rect rx="6" ry="6" x="-26" y="-26" width="52" height="52" class="key none"/>
</g>
<g transform="translate(84, 63)" class="key keypos-1">
<rect rx="6" ry="6" x="-26" y="-26" width="52" height="52" class="key"/>
<text x="0" y="0" class="key tap">Gui+Q</text>
</g>
<g transform="translate(140, 42)" class="key keypos-2">
<rect rx="6" ry="6" x="-26" y="-26" width="52" height="52" class="key"/>
<text x="0" y="0" class="key tap">Gui+W</text>
</g>
<g transform="translate(196, 28)" class="key keypos-3">
<rect rx="6" ry="6" x="-26" y="-26" width="52" height="52" class="key"/>
<use href="#mdi:arrow-up" xlink:href="#mdi:arrow-up" x="-9" y="-9" height="18" width="18.0" class="key tap glyph mdi:arrow-up"/>
</g>
<g transform="translate(252, 42)" class="key keypos-4">
<rect rx="6" ry="6" x="-26" y="-26" width="52" height="52" class="key"/>
<text x="0" y="0" class="key tap">Gui+R</text>
</g>
<g transform="translate(308, 42)" class="key keypos-5">
<rect rx="6" ry="6" x="-26" y="-26" width="52" height="52" class="key"/>
<text x="0" y="0" class="key tap">Gui+T</text>
</g>
<g transform="translate(728, 42)" class="key keypos-6">
<rect rx="6" ry="6" x="-26" y="-26" width="52" height="52" class="key"/>
<text x="0" y="0" class="key tap">Gui+Y</text>
</g>
<g transform="translate(784, 42)" class="key keypos-7">
<rect rx="6" ry="6" x="-26" y="-26" width="52" height="52" class="key"/>
<text x="0" y="0" class="key tap">Gui+U</text>
</g>
<g transform="translate(840, 28)" class="key none keypos-8">
<rect rx="6" ry="6" x="-26" y="-26" width="52" height="52" class="key none"/>
</g>
<g transform="translate(896, 42)" class="key none keypos-9">
<rect rx="6" ry="6" x="-26" y="-26" width="52" height="52" class="key none"/>
</g>
<g transform="translate(952, 63)" class="key none keypos-10">
<rect rx="6" ry="6" x="-26" y="-26" width="52" height="52" class="key none"/>
</g>
<g transform="translate(1008, 63)" class="key none keypos-11">
<rect rx="6" ry="6" x="-26" y="-26" width="52" height="52" class="key none"/>
</g>
<g transform="translate(28, 119)" class="key trans keypos-12">
<rect rx="6" ry="6" x="-26" y="-26" width="52" height="52" class="key trans"/>
<text x="0" y="0" class="key trans tap">▽</text>
</g>
<g transform="translate(84, 119)" class="key keypos-13">
<rect rx="6" ry="6" x="-26" y="-26" width="52" height="52" class="key"/>
<text x="0" y="0" class="key tap">Gui+A</text>
</g>
<g transform="translate(140, 98)" class="key keypos-14">
<rect rx="6" ry="6" x="-26" y="-26" width="52" height="52" class="key"/>
<use href="#mdi:arrow-left" xlink:href="#mdi:arrow-left" x="-9" y="-9" height="18" width="18.0" class="key tap glyph mdi:arrow-left"/>
</g>
<g transform="translate(196, 84)" class="key keypos-15">
<rect rx="6" ry="6" x="-26" y="-26" width="52" height="52" class="key"/>
<use href="#mdi:arrow-down" xlink:href="#mdi:arrow-down" x="-9" y="-9" height="18" width="18.0" class="key tap glyph mdi:arrow-down"/>
</g>
<g transform="translate(252, 98)" class="key keypos-16">
<rect rx="6" ry="6" x="-26" y="-26" width="52" height="52" class="key"/>
<use href="#mdi:arrow-right" xlink:href="#mdi:arrow-right" x="-9" y="-9" height="18" width="18.0" class="key tap glyph mdi:arrow-right"/>
</g>
<g transform="translate(308, 98)" class="key keypos-17">
<rect rx="6" ry="6" x="-26" y="-26" width="52" height="52" class="key"/>
<text x="0" y="0" class="key tap">Gui+F</text>
</g>
<g transform="translate(728, 98)" class="key keypos-18">
<rect rx="6" ry="6" x="-26" y="-26" width="52" height="52" class="key"/>
<text x="0" y="0" class="key tap">Gui+H</text>
</g>
<g transform="translate(784, 98)" class="key none keypos-19">
<rect rx="6" ry="6" x="-26" y="-26" width="52" height="52" class="key none"/>
</g>
<g transform="translate(840, 84)" class="key keypos-20">
<rect rx="6" ry="6" x="-26" y="-26" width="52" height="52" class="key"/>
<use href="#mdi:apple-keyboard-shift" xlink:href="#mdi:apple-keyboard-shift" x="-9" y="-9" height="18" width="18.0" class="key tap glyph mdi:apple-keyboard-shift"/>
</g>
<g transform="translate(896, 98)" class="key keypos-21">
<rect rx="6" ry="6" x="-26" y="-26" width="52" height="52" class="key"/>
<use href="#mdi:apple-keyboard-command" xlink:href="#mdi:apple-keyboard-command" x="-9" y="-9" height="18" width="18.0" class="key tap glyph mdi:apple-keyboard-command"/>
</g>
<g transform="translate(952, 119)" class="key none keypos-22">
<rect rx="6" ry="6" x="-26" y="-26" width="52" height="52" class="key none"/>
</g>
<g transform="translate(1008, 119)" class="key trans keypos-23">
<rect rx="6" ry="6" x="-26" y="-26" width="52" height="52" class="key trans"/>
<text x="0" y="0" class="key trans tap">▽</text>
</g>
<g transform="translate(28, 175)" class="key none keypos-24">
<rect rx="6" ry="6" x="-26" y="-26" width="52" height="52" class="key none"/>
</g>
<g transform="translate(84, 175)" class="key keypos-25">
<rect rx="6" ry="6" x="-26" y="-26" width="52" height="52" class="key"/>
<text x="0" y="0" class="key tap">Gui+Z</text>
</g>
<g transform="translate(140, 154)" class="key keypos-26">
<rect rx="6" ry="6" x="-26" y="-26" width="52" height="52" class="key"/>
<text x="0" y="0" class="key tap">Gui+X</text>
</g>
<g transform="translate(196, 140)" class="key keypos-27">
<rect rx="6" ry="6" x="-26" y="-26" width="52" height="52" class="key"/>
<text x="0" y="0" class="key tap">Gui+C</text>
</g>
<g transform="translate(252, 154)" class="key keypos-28">
<rect rx="6" ry="6" x="-26" y="-26" width="52" height="52" class="key"/>
<text x="0" y="0" class="key tap">Gui+V</text>
</g>
<g transform="translate(308, 154)" class="key keypos-29">
<rect rx="6" ry="6" x="-26" y="-26" width="52" height="52" class="key"/>
<text x="0" y="0" class="key tap">Gui+B</text>
</g>
<g transform="translate(728, 154)" class="key keypos-30">
<rect rx="6" ry="6" x="-26" y="-26" width="52" height="52" class="key"/>
<text x="0" y="0" class="key tap">Gui+N</text>
</g>
<g transform="translate(784, 154)" class="key keypos-31">
<rect rx="6" ry="6" x="-26" y="-26" width="52" height="52" class="key"/>
<text x="0" y="0" class="key tap">Gui+M</text>
</g>
<g transform="translate(840, 140)" class="key none keypos-32">
<rect rx="6" ry="6" x="-26" y="-26" width="52" height="52" class="key none"/>
</g>
<g transform="translate(896, 154)" class="key none keypos-33">
<rect rx="6" ry="6" x="-26" y="-26" width="52" height="52" class="key none"/>
</g>
<g transform="translate(952, 175)" class="key none keypos-34">
<rect rx="6" ry="6" x="-26" y="-26" width="52" height="52" class="key none"/>
</g>
<g transform="translate(1008, 175)" class="key keypos-35">
<rect rx="6" ry="6" x="-26" y="-26" width="52" height="52" class="key"/>
<use href="#mdi:apple-keyboard-option" xlink:href="#mdi:apple-keyboard-option" x="-9" y="-9" height="18" width="18.0" class="key tap glyph mdi:apple-keyboard-option"/>
</g>
<g transform="translate(404, 276) rotate(30.0)" class="key held keypos-36">
<rect rx="6" ry="6" x="-26" y="-26" width="52" height="52" class="key held"/>
</g>
<g transform="translate(140, 210)" class="key none keypos-37">
<rect rx="6" ry="6" x="-26" y="-26" width="52" height="52" class="key none"/>
</g>
<g transform="translate(196, 196)" class="key none keypos-38">
<rect rx="6" ry="6" x="-26" y="-26" width="52" height="52" class="key none"/>
</g>
<g transform="translate(280, 245)" class="key none keypos-39">
<rect rx="6" ry="6" x="-26" y="-26" width="52" height="52" class="key none"/>
</g>
<g transform="translate(344, 253) rotate(15.0)" class="key none keypos-40">
<rect rx="6" ry="6" x="-26" y="-26" width="52" height="52" class="key none"/>
</g>
<g transform="translate(692, 251) rotate(-15.0)" class="key keypos-41">
<rect rx="6" ry="6" x="-26" y="-26" width="52" height="52" class="key"/>
<text x="0" y="0" class="key tap">END</text>
</g>
<g transform="translate(756, 245)" class="key none keypos-42">
<rect rx="6" ry="6" x="-26" y="-26" width="52" height="52" class="key none"/>
</g>
<g transform="translate(840, 196)" class="key none keypos-43">
<rect rx="6" ry="6" x="-26" y="-26" width="52" height="52" class="key none"/>
</g>
<g transform="translate(896, 210)" class="key none keypos-44">
<rect rx="6" ry="6" x="-26" y="-26" width="52" height="52" class="key none"/>
</g>
<g transform="translate(632, 274) rotate(-30.0)" class="key keypos-45">
<rect rx="6" ry="6" x="-26" y="-26" width="52" height="52" class="key"/>
<text x="0" y="0" class="key tap">HOME</text>
</g>
</g>
</g>
<g transform="translate(40, 741)" class="layer-Fun-Mac">
<text x="0" y="28" class="label" id="Fun-Mac">Fun-Mac:</text>
<g transform="translate(0, 56)">
<g transform="translate(28, 63)" class="key none keypos-0">
<rect rx="6" ry="6" x="-26" y="-26" width="52" height="52" class="key none"/>
</g>
<g transform="translate(84, 63)" class="key none keypos-1">
<rect rx="6" ry="6" x="-26" y="-26" width="52" height="52" class="key none"/>
</g>
<g transform="translate(140, 42)" class="key none keypos-2">
<rect rx="6" ry="6" x="-26" y="-26" width="52" height="52" class="key none"/>
</g>
<g transform="translate(196, 28)" class="key none keypos-3">
<rect rx="6" ry="6" x="-26" y="-26" width="52" height="52" class="key none"/>
</g>
<g transform="translate(252, 42)" class="key none keypos-4">
<rect rx="6" ry="6" x="-26" y="-26" width="52" height="52" class="key none"/>
</g>
<g transform="translate(308, 42)" class="key none keypos-5">
<rect rx="6" ry="6" x="-26" y="-26" width="52" height="52" class="key none"/>
</g>
<g transform="translate(728, 42)" class="key none keypos-6">
<rect rx="6" ry="6" x="-26" y="-26" width="52" height="52" class="key none"/>
</g>
<g transform="translate(784, 42)" class="key none keypos-7">
<rect rx="6" ry="6" x="-26" y="-26" width="52" height="52" class="key none"/>
</g>
<g transform="translate(840, 28)" class="key none keypos-8">
<rect rx="6" ry="6" x="-26" y="-26" width="52" height="52" class="key none"/>
</g>
<g transform="translate(896, 42)" class="key none keypos-9">
<rect rx="6" ry="6" x="-26" y="-26" width="52" height="52" class="key none"/>
</g>
<g transform="translate(952, 63)" class="key none keypos-10">
<rect rx="6" ry="6" x="-26" y="-26" width="52" height="52" class="key none"/>
</g>
<g transform="translate(1008, 63)" class="key none keypos-11">
<rect rx="6" ry="6" x="-26" y="-26" width="52" height="52" class="key none"/>
</g>
<g transform="translate(28, 119)" class="key none keypos-12">
<rect rx="6" ry="6" x="-26" y="-26" width="52" height="52" class="key none"/>
</g>
<g transform="translate(84, 119)" class="key none keypos-13">
<rect rx="6" ry="6" x="-26" y="-26" width="52" height="52" class="key none"/>
</g>
<g transform="translate(140, 98)" class="key none keypos-14">
<rect rx="6" ry="6" x="-26" y="-26" width="52" height="52" class="key none"/>
</g>
<g transform="translate(196, 84)" class="key none keypos-15">
<rect rx="6" ry="6" x="-26" y="-26" width="52" height="52" class="key none"/>
</g>
<g transform="translate(252, 98)" class="key none keypos-16">
<rect rx="6" ry="6" x="-26" y="-26" width="52" height="52" class="key none"/>
</g>
<g transform="translate(308, 98)" class="key none keypos-17">
<rect rx="6" ry="6" x="-26" y="-26" width="52" height="52" class="key none"/>
</g>
<g transform="translate(728, 98)" class="key none keypos-18">
<rect rx="6" ry="6" x="-26" y="-26" width="52" height="52" class="key none"/>
</g>
<g transform="translate(784, 98)" class="key keypos-19">
<rect rx="6" ry="6" x="-26" y="-26" width="52" height="52" class="key"/>
<use href="#mdi:mouse-left-click" xlink:href="#mdi:mouse-left-click" x="-9" y="-9" height="18" width="18.0" class="key tap glyph mdi:mouse-left-click"/>
</g>
<g transform="translate(840, 84)" class="key keypos-20">
<rect rx="6" ry="6" x="-26" y="-26" width="52" height="52" class="key"/>
<use href="#mdi:mouse" xlink:href="#mdi:mouse" x="-9" y="-9" height="18" width="18.0" class="key tap glyph mdi:mouse"/>
<use href="#mdi:arrow-up" xlink:href="#mdi:arrow-up" x="-8" y="9" height="15" width="15.0" class="key hold glyph mdi:arrow-up"/>
</g>
<g transform="translate(896, 98)" class="key keypos-21">
<rect rx="6" ry="6" x="-26" y="-26" width="52" height="52" class="key"/>
<use href="#mdi:mouse-right-click" xlink:href="#mdi:mouse-right-click" x="-9" y="-9" height="18" width="18.0" class="key tap glyph mdi:mouse-right-click"/>
</g>
<g transform="translate(952, 119)" class="key keypos-22">
<rect rx="6" ry="6" x="-26" y="-26" width="52" height="52" class="key"/>
<use href="#mdi:mouse-move-up" xlink:href="#mdi:mouse-move-up" x="-9" y="-9" height="18" width="18.0" class="key tap glyph mdi:mouse-move-up"/>
</g>
<g transform="translate(1008, 119)" class="key none keypos-23">
<rect rx="6" ry="6" x="-26" y="-26" width="52" height="52" class="key none"/>
</g>
<g transform="translate(28, 175)" class="key none keypos-24">
<rect rx="6" ry="6" x="-26" y="-26" width="52" height="52" class="key none"/>
</g>
<g transform="translate(84, 175)" class="key none keypos-25">
<rect rx="6" ry="6" x="-26" y="-26" width="52" height="52" class="key none"/>
</g>
<g transform="translate(140, 154)" class="key none keypos-26">
<rect rx="6" ry="6" x="-26" y="-26" width="52" height="52" class="key none"/>
</g>
<g transform="translate(196, 140)" class="key none keypos-27">
<rect rx="6" ry="6" x="-26" y="-26" width="52" height="52" class="key none"/>
</g>
<g transform="translate(252, 154)" class="key none keypos-28">
<rect rx="6" ry="6" x="-26" y="-26" width="52" height="52" class="key none"/>
</g>
<g transform="translate(308, 154)" class="key none keypos-29">
<rect rx="6" ry="6" x="-26" y="-26" width="52" height="52" class="key none"/>
</g>
<g transform="translate(728, 154)" class="key none keypos-30">
<rect rx="6" ry="6" x="-26" y="-26" width="52" height="52" class="key none"/>
</g>
<g transform="translate(784, 154)" class="key keypos-31">
<rect rx="6" ry="6" x="-26" y="-26" width="52" height="52" class="key"/>
<use href="#mdi:mouse" xlink:href="#mdi:mouse" x="-9" y="-9" height="18" width="18.0" class="key tap glyph mdi:mouse"/>
<use href="#mdi:arrow-left" xlink:href="#mdi:arrow-left" x="-8" y="9" height="15" width="15.0" class="key hold glyph mdi:arrow-left"/>
</g>
<g transform="translate(840, 140)" class="key keypos-32">
<rect rx="6" ry="6" x="-26" y="-26" width="52" height="52" class="key"/>
<use href="#mdi:mouse" xlink:href="#mdi:mouse" x="-9" y="-9" height="18" width="18.0" class="key tap glyph mdi:mouse"/>
<use href="#mdi:arrow-down" xlink:href="#mdi:arrow-down" x="-8" y="9" height="15" width="15.0" class="key hold glyph mdi:arrow-down"/>
</g>
<g transform="translate(896, 154)" class="key keypos-33">
<rect rx="6" ry="6" x="-26" y="-26" width="52" height="52" class="key"/>
<use href="#mdi:mouse" xlink:href="#mdi:mouse" x="-9" y="-9" height="18" width="18.0" class="key tap glyph mdi:mouse"/>
<use href="#mdi:arrow-right" xlink:href="#mdi:arrow-right" x="-8" y="9" height="15" width="15.0" class="key hold glyph mdi:arrow-right"/>
</g>
<g transform="translate(952, 175)" class="key keypos-34">
<rect rx="6" ry="6" x="-26" y="-26" width="52" height="52" class="key"/>
<use href="#mdi:mouse-move-down" xlink:href="#mdi:mouse-move-down" x="-9" y="-9" height="18" width="18.0" class="key tap glyph mdi:mouse-move-down"/>
</g>
<g transform="translate(1008, 175)" class="key none keypos-35">
<rect rx="6" ry="6" x="-26" y="-26" width="52" height="52" class="key none"/>
</g>
<g transform="translate(404, 276) rotate(30.0)" class="key none keypos-36">
<rect rx="6" ry="6" x="-26" y="-26" width="52" height="52" class="key none"/>
</g>
<g transform="translate(140, 210)" class="key none keypos-37">
<rect rx="6" ry="6" x="-26" y="-26" width="52" height="52" class="key none"/>
</g>
<g transform="translate(196, 196)" class="key none keypos-38">
<rect rx="6" ry="6" x="-26" y="-26" width="52" height="52" class="key none"/>
</g>
<g transform="translate(280, 245)" class="key none keypos-39">
<rect rx="6" ry="6" x="-26" y="-26" width="52" height="52" class="key none"/>
</g>
<g transform="translate(344, 253) rotate(15.0)" class="key held keypos-40">
<rect rx="6" ry="6" x="-26" y="-26" width="52" height="52" class="key held"/>
</g>
<g transform="translate(692, 251) rotate(-15.0)" class="key none keypos-41">
<rect rx="6" ry="6" x="-26" y="-26" width="52" height="52" class="key none"/>
</g>
<g transform="translate(756, 245)" class="key none keypos-42">
<rect rx="6" ry="6" x="-26" y="-26" width="52" height="52" class="key none"/>
</g>
<g transform="translate(840, 196)" class="key none keypos-43">
<rect rx="6" ry="6" x="-26" y="-26" width="52" height="52" class="key none"/>
</g>
<g transform="translate(896, 210)" class="key none keypos-44">
<rect rx="6" ry="6" x="-26" y="-26" width="52" height="52" class="key none"/>
</g>
<g transform="translate(632, 274) rotate(-30.0)" class="key none keypos-45">
<rect rx="6" ry="6" x="-26" y="-26" width="52" height="52" class="key none"/>
</g>
</g>
</g>
</svg>
